<svg fill="none" height="46" viewBox="0 0 122 46" width="122" xmlns="http://www.w3.org/2000/svg"><path d="m17.8625 2.55982h1.2324v.814c.2545-.49852.8356-.92597 1.6195-.92597.6923 0 1.2432.29502 1.5074.95616.4076-.66114 1.1408-.95616 1.8028-.95616.978 0 1.7726.59979 1.7726 2.06519v3.36702h-1.2324v-3.2862c0-.78382-.3364-1.11877-.9477-1.11877-.6114 0-1.171.407-1.171 1.221v3.18397h-1.2325v-3.2862c0-.78382-.3461-1.11877-.9477-1.11877s-1.171.407-1.171 1.221v3.18397h-1.2324z" fill="#a77c4f"/><path d="m28.6189 7.34064-2.109-4.78081h1.3349l1.4157 3.42836 1.3036-3.42836h1.2022l-2.9036 7.14104h-1.212l.9673-2.36023z" fill="#a77c4f"/><path d="m32.9988 6.39519v-2.90938h-.7128v-.92598h.7128v-1.1694h1.2324v1.1694h1.171v.92598h-1.171v2.7974c0 .46835.2242.68159.6113.68159.2448 0 .4281-.03019.6006-.10224v.97661c-.193.07108-.4582.13242-.8356.13242-1.0598 0-1.6097-.56961-1.6097-1.57737z" fill="#a77c4f"/><path d="m36.1968 5.28615v-.08179c0-1.68838 1.2022-2.75651 2.6892-2.75651 1.1817 0 2.2922.52871 2.4346 1.99411h-1.1915c-.1024-.71177-.5704-1.00679-1.2227-1.00679-.8453 0-1.4469.65139-1.4469 1.74972v.08178c0 1.15967.5704 1.77017 1.4772 1.77017.6523 0 1.2119-.38655 1.2841-1.13921h1.131c-.0917 1.221-1.0189 2.08564-2.4649 2.08564-1.5278 0-2.6891-.99706-2.6891-2.69615z" fill="#a77c4f"/><path d="m42.0236 6.40492c0-1.24145 1.2022-1.68838 2.73-1.68838h.6621v-.27458c0-.71176-.2448-1.06813-.9682-1.06813-.6416 0-.9575.30574-1.0189.83445h-1.1915c.1024-1.24146 1.0901-1.75946 2.2816-1.75946 1.1914 0 2.1294.48782 2.1294 1.94349v3.4897h-1.212v-.6514c-.3461.45763-.8151.75266-1.6302.75266-.9779 0-1.7823-.46834-1.7823-1.57738zm3.3921-.38655v-.52872h-.6318c-.937 0-1.5386.21324-1.5386.86464 0 .4479.2447.74292.856.74292.7537 0 1.3144-.39629 1.3144-1.07787z" fill="#a77c4f"/><path d="m47.6563 6.22187h1.1613c.0614.53942.3363.8549 1.0598.8549.6621 0 .9575-.23369.9575-.68159 0-.44789-.3569-.60076-1.1408-.73221-1.406-.22395-1.9257-.62024-1.9257-1.6173 0-1.06814.9985-1.59685 1.9969-1.59685 1.0901 0 1.9559.407 2.0885 1.60756h-1.1408c-.1014-.48782-.3763-.71176-.9477-.71176-.5295 0-.8454.25413-.8454.63095 0 .37681.2545.53942 1.0999.68158 1.2529.19279 1.9968.49853 1.9968 1.62801s-.7644 1.69908-2.1285 1.69908c-1.364 0-2.1801-.63095-2.2308-1.76043z" fill="#a77c4f"/><path d="m53.0248 7.15759c0-.4479.3568-.8033.8054-.8033.4485 0 .8151.35637.8151.8033 0 .44692-.3569.79355-.8151.79355-.4583 0-.8054-.34566-.8054-.79355z" fill="#a77c4f"/><path d="m55.4282 5.28615v-.08179c0-1.68838 1.2022-2.75651 2.6891-2.75651 1.1818 0 2.2923.52871 2.4347 1.99411h-1.1915c-.1024-.71177-.5704-1.00679-1.2227-1.00679-.8453 0-1.4469.65139-1.4469 1.74972v.08178c0 1.15967.5704 1.77017 1.4771 1.77017.6523 0 1.212-.38655 1.2842-1.13921h1.131c-.0917 1.221-1.0189 2.08564-2.4649 2.08564-1.5278 0-2.6891-.99706-2.6891-2.69615z" fill="#a77c4f"/><path d="m61.2852 5.27641v-.08179c0-1.64845 1.172-2.74677 2.7408-2.74677s2.7301 1.08858 2.7301 2.71659v.08179c0 1.65819-1.171 2.73704-2.7398 2.73704-1.5689 0-2.7301-1.08859-2.7301-2.70588zm4.2073-.02045v-.07107c0-1.09833-.55-1.77017-1.4675-1.77017s-1.4771.66113-1.4771 1.75945v.08179c0 1.08859.5401 1.77017 1.4771 1.77017s1.4675-.68158 1.4675-1.77017z" fill="#a77c4f"/><path d="m67.8656 2.55982h1.2324v.814c.2545-.49852.8356-.92597 1.6195-.92597.6923 0 1.2432.29502 1.5074.95616.4076-.66114 1.1408-.95616 1.8029-.95616.9779 0 1.7726.59979 1.7726 2.06519v3.36702h-1.2325v-3.2862c0-.78382-.3364-1.11877-.9477-1.11877s-1.171.407-1.171 1.221v3.18397h-1.2324v-3.2862c0-.78382-.3462-1.11877-.9478-1.11877s-1.1719.407-1.1719 1.221v3.18397h-1.2325v-5.32024z" fill="#a77c4f"/><path d="m5.12668 17.7835h-5.12668v-3.3417h14.5825v3.3417h-5.12671v15.6238h-4.32911z" fill="#1a477f"/><path d="m45.3923 29.1902-1.3017 4.2171h-4.0376l6.2422-18.9655h5.6044l6.1622 18.9655h-4.4891l-4.7279-15.4642-3.4535 11.2471z" fill="#1a477f"/><path d="m61.5884 27.4658h4.1176c.1862 1.6981.9028 3.1032 3.7187 3.1032 1.8857 0 3.1337-1.0341 3.1337-2.5199 0-1.4859-.7965-2.0428-3.5861-2.4664-4.8605-.6368-6.8525-2.0954-6.8525-5.7564 0-3.2366 2.7096-5.6504 6.9061-5.6504s6.7735 1.9094 7.1187 5.6766h-3.9576c-.2662-1.7244-1.2754-2.5199-3.1611-2.5199s-2.8422.8754-2.8422 2.148c0 1.3534.6114 1.9892 3.5325 2.4138 4.5953.5832 6.9588 1.8305 6.9588 5.7564 0 3.369-2.7622 6.0476-7.2513 6.0476-5.2056 0-7.5964-2.4401-7.8353-6.2336z" fill="#1a477f"/><path d="m35.526 24.5087-3.1649.0107c-.041 2.9192-1.3163 4.5131-2.5955 5.3806l4.8478-.9142c1.1027-2.2795.9126-4.4771.9126-4.4771z" fill="#ffb600"/><path d="m32.7999 25.2487c-.4251 2.4557-1.5884 3.8179-2.7896 4.5725l4.8283-.6456c.9712-1.7925 1.0891-3.4429 1.0891-3.4429z" fill="#ff3918"/><path d="m32.9208 26.1406c-.6163 1.7721-1.5435 2.8636-2.5234 3.5306l4.5953-.3641c.6991-1.1986.935-2.1821.935-2.1821l-3.0079-.9844z" fill="#00a3ab"/><path d="m33.0212 26.943c-.7605 1.3222-1.6614 2.1732-2.5799 2.7097l4.761-.1684c.4017-.594.5909-1.0146.5909-1.0146l-2.772-1.5258z" fill="#00709a"/><path d="m32.5288 28.1065c-1.1027 1.2931-2.7135 2.035-4.4188 2.035-3.278 0-5.9447-2.7779-5.9447-6.1917 0-3.4137 2.6667-6.1917 5.9447-6.1917 1.7063 0 3.3161.742 4.4188 2.035l.4388.5151 2.7213-2.3057-.4378-.517c-1.7404-2.0516-4.3438-3.2278-7.1411-3.2278-5.309 0-9.6284 4.3475-9.6284 9.6921s4.3194 9.6921 9.6284 9.6921c2.7983 0 5.4007-1.1762 7.1411-3.2268l.4378-.517-2.7213-2.3057-.4388.5151z" fill="#1a477f"/><path d="m14.403 4.92394h-4.40414c-.0663-.00292-1.63122-.06037-2.41514-.68158l.74492-.52482c.61232.4849 1.67416.5365 1.68486.5365h2.8237c-1.8701-1.80619-3.80361-2.68251-5.80437-2.60754-2.52726.09542-4.50851 1.73122-5.39286 2.60754h1.77162l-.17453.66893h-3.057678l.432912-.54332c.106277-.13243 2.635496-3.25699 6.389336-3.402072 2.38101-.093475 4.69967 1.045742 6.87787 3.382592l.5235.5628z" fill="#a77c4f"/><path d="m4.88391 4.77789c-.03023 0-.22621 0-.23303 0l.2106-.66893c.05461.00487 1.29484.03603 2.32446-1.21808.42902-.5219.89313-.61829 1.21976-.61343 1.05888.02727 2.3186 1.59296 2.3566 1.64456l-.88626.05064c-.20866-.28043-.88142-1.01069-1.48789-1.02627-.24376-.00292-.47386.11489-.68252.36903-1.13785 1.38556-2.52629 1.46345-2.82074 1.46345z" fill="#a77c4f"/><path d="m5.7624 7.99593c-.76247 0-1.39234-.40895-1.81745-1.19861-.46899-.87145-.50896-1.94446-.11018-2.94346.36076-.90359.85412-1.42743 1.46741-1.55596.77027-.16358 1.38942.38753 1.41574.4109l-.50311.47905.25155-.23952-.2496.2405s-.37636-.32229-.75955-.23758c-.35393.07692-.68154.46932-.94675 1.13532-.32955.82569-.3003 1.70493.07996 2.41183.40756.75753.9643.98634 1.75504.72442l.24376.62998c-.28861.09639-.56454.1441-.82585.1441z" fill="#a77c4f"/><path d="m7.27074 9.39026c-.0897 0-.1794-.00195-.26911-.00487-3.75384-.14508-6.284034-3.26868-6.389336-3.40207l-.432912-.54332h3.056708l.17453.66892h-1.77163c.88435.87535 2.8656 2.51115 5.39287 2.60754 1.9988.07595 3.93424-.80134 5.80434-2.60754h-2.83831s-1.05888.05258-1.67022.53651l-.74492-.52482c.78392-.62122 2.34981-.67866 2.40148-.68158h4.41877l-.5235.56181c-2.0963 2.24923-4.31843 3.38747-6.60876 3.38747z" fill="#a77c4f"/><path d="m8.3706 8.08746c-.31883 0-.77124-.111-1.18368-.6144-1.02865-1.25314-2.27083-1.22198-2.32446-1.21808l-.2106-.6699c.06532-.00195 1.79892-.06329 3.0528 1.46345.20963.25511.44071.38363.68349.36903.60939-.01558 1.28021-.74585 1.48691-1.02529l.89604.03992c-.038.0516-1.3075 1.62703-2.36637 1.6543-.0117 0-.02243 0-.0351 0z" fill="#a77c4f"/><path d="m103.255 0s-6.7109 8.21891-18.7447 7.91415v8.27735h37.4887v-8.27735c-12.033.30379-18.745-7.91415-18.745-7.91415z" fill="#ffb600"/><path d="m84.5113 7.95407v30.13183c12.0328-.3038 18.7447 7.9141 18.7447 7.9141v-30.1318s-6.7109-8.21889-18.7447-7.91413z" fill="#00a0a9"/><path d="m122 7.95407v30.13183c-12.033-.3038-18.745 7.9141-18.745 7.9141v-30.1318s6.711-8.21889 18.745-7.91413z" fill="#006e96"/><path d="m97.8477 27.2623c.1716.7585.2554 1.5462.2466 2.3651-.0087.8364-.117 1.5842-.3207 2.2385-.2077.6573-.4973 1.1977-.8766 1.6251-.3764.4255-.8249.7108-1.3455.8608-.5187.147-1.0901.1304-1.7131-.0477-.9253-.2649-1.68-.7147-2.2689-1.3525-.5889-.6368-1.0531-1.4109-1.3865-2.3203-.3335-.9133-.5597-1.9289-.6796-3.0584-.1199-1.1294-.1736-2.3222-.1609-3.5861.0107-1.0301.1004-2.0496.274-3.0515.1736-1.0058.4495-1.8851.8317-2.6358.3793-.7556.8756-1.3154 1.4889-1.6845.6103-.369 1.3621-.4235 2.2503-.1694.5022.1441.977.3953 1.4187.7517.4387.3564.8297.7887 1.1681 1.296.3373.5073.6113 1.0788.8229 1.7156.2096.6358.3208 1.3096.3403 2.0204l-2.0534-.5881c-.04-.7176-.2184-1.3407-.5314-1.8665-.314-.5258-.7401-.8637-1.2812-1.0185-.3705-.1061-.6923-.1042-.9653.0048-.273.113-.5041.299-.6913.5551-.1901.259-.3432.5715-.4631.9405-.117.37-.2136.7673-.2916 1.1879-.075.4216-.1326.8442-.1657 1.2707-.0332.4265-.0663.8237-.0946 1.1937l.0361.0604c.2827-.6105.6698-1.0117 1.1593-1.2093.4895-.1947 1.015-.2132 1.5795-.0516.6231.1782 1.1818.4859 1.6703.9211.4884.4352.9019.961 1.2382 1.5754.3364.6154.5899 1.2999.7645 2.0555zm-1.9569 3.0302c.0965-.408.1462-.8442.1511-1.3038.0049-.4557-.0351-.9143-.1228-1.3642-.0849-.4527-.2175-.8656-.4008-1.2385s-.4124-.6981-.6854-.9747c-.274-.2765-.5967-.4664-.9692-.5725s-.6971-.1061-.9838.0029c-.2828.1062-.5226.2931-.7176.558-.195.2648-.3432.5968-.4456.996-.0995.3963-.1511.8355-.156 1.3097-.0049.4741.038.9396.1277 1.3943.0927.4547.2331.8773.4222 1.2658.1882.3924.4222.7263.7011 1.0039.2817.2784.6064.4693.9769.5754.3735.1071.6981.0993.976-.0263s.5119-.3291.702-.6017c.1902-.2736.3306-.6144.4242-1.0234" fill="#fff"/><path d="m111.855 34.3868-.538.0146c-.037-.0107-.075-.0273-.114-.0321-.542-.0662-1.029-.2629-1.436-.6173-.888-.7761-1.222-1.7936-1.284-2.9192-.002-.0457.06-.1217.108-.1373.261-.0837.524-.1548.786-.2288.388-.109.775-.2161 1.132-.3164.11.3641.184.7273.328 1.0584.223.5102.657.8549 1.278.7838.524-.0594.968-.2746 1.34-.6358.572-.556.883-1.2502 1.09-1.9951.307-1.0974.427-2.222.475-3.3553.008-.2094.019-.4197.029-.629-.15.2414-.253.4936-.384.7312-.563 1.0175-1.375 1.7487-2.543 2.0477-1.24.3164-2.285-.0429-3.025-1.0399-.454-.6115-.682-1.3145-.818-2.0477-.049-.2726-.089-.5472-.132-.8208l-.029-1.0166c.008-.0379.024-.074.027-.1119.05-1.3729.369-2.6806 1.054-3.886.626-1.1013 1.466-1.9971 2.684-2.4888.668-.2707 1.368-.4284 2.096-.3262.951.1334 1.594.7001 2.046 1.4888.515.8978.745 1.8851.881 2.8948.147 1.1003.223 2.2054.229 3.3164.008 1.4342-.103 2.8568-.414 4.2599-.34 1.5403-.884 2.995-1.899 4.2511-.533.6592-1.179 1.1723-1.985 1.4722-.318.1188-.657.1899-.985.2824zm2.954-12.5499c-.02-.7176-.089-1.2356-.279-1.7322-.183-.48-.435-.9152-.92-1.1596-.638-.3214-1.238-.1441-1.788.2103-.588.3797-.949.9493-1.19 1.5803-.441 1.1538-.516 2.3407-.249 3.5452.08.3602.212.7059.441 1.0029.557.7215 1.246.8189 2.096.4294.553-.2542.935-.6933 1.233-1.2025.519-.889.661-1.8607.655-2.6748z" fill="#fff"/><path d="m73.9468 46h-73.697233c-.066301 0-.112128-.0701-.086777-.1334l2.74372-7.0777c.01463-.037.04875-.0614.08678-.0614h73.69731c.0663 0 .1121.0701.0867.1334l-2.7437 7.0777c-.0146.037-.0487.0614-.0868.0614z" fill="#1a477f"/><g fill="#fff"><path d="m14.4265 43.8705c-.8717 0-1.4928-.5667-1.4928-1.4196 0-1.0536.7459-1.8608 1.756-1.8608.9068 0 1.4879.5979 1.4879 1.4284 0 1.0799-.7459 1.852-1.7521 1.852zm.2506-2.8071c-.706 0-1.1262.6426-1.1262 1.3748 0 .5891.3578.9601.9029.9601.6796 0 1.1086-.6066 1.1086-1.3661 0-.5355-.2993-.964-.8853-.9688z"/><path d="m19.4322 42.4606c0 .8082-.4465 1.4099-1.1485 1.4099-.4378 0-.6884-.223-.7908-.4547l-.1921 1.2093h-.5411l.3842-2.4098c.0487-.3262.0624-.5219.0711-.7235h.5188c0 .1207-.0088.2765-.0225.4197.1697-.2902.469-.4684.822-.4684.5187 0 .898.3798.898 1.0175zm-.5625.0399c0-.4109-.197-.6377-.5227-.6377-.4338 0-.7644.3748-.7644.9591 0 .3924.2233.629.5987.629.4339 0 .6884-.4012.6884-.9504z"/><path d="m22.7084 42.4606c0 .8082-.4466 1.4099-1.1486 1.4099-.4378 0-.6884-.223-.7908-.4547l-.192 1.2093h-.5412l.3842-2.4098c.0487-.3262.0624-.5219.0712-.7235h.5187c0 .1207-.0088.2765-.0224.4197.1696-.2902.4689-.4684.8219-.4684.5187 0 .898.3798.898 1.0175zm-.5626.0399c0-.4109-.197-.6377-.5226-.6377-.4339 0-.7645.3748-.7645.9591 0 .3924.2233.629.5987.629.4339 0 .6884-.4012.6884-.9504z"/><path d="m23.4552 42.8219c-.0048-.7858.5451-1.3749 1.2832-1.3749.6435 0 1.1037.3924 1.1037 1.0448 0 .8033-.5314 1.3787-1.287 1.3787-.6436 0-1.0999-.406-1.0999-1.0486zm1.8321-.335c0-.37-.1921-.6202-.5675-.6202-.4426 0-.7195.4109-.7195.9552 0 .3661.1745.629.5674.629.4602 0 .7196-.4148.7196-.964z"/><path d="m26.82 42.2143c.0488-.3262.0624-.5219.0673-.7235h.5187c0 .1247-.0088.3038-.0263.4869.1921-.335.4202-.518.858-.5219l-.0809.5044c-.4778.0048-.7869.183-.8717.7234l-.1784 1.1421h-.5411z"/><path d="m29.0323 43.1159.1921-1.2181h-.313l.0624-.406h.313l.0848-.5131h.5412l-.0848.5131h.505l-.0624.406h-.505l-.1921 1.2142c-.0361.2366.0448.3126.2369.3126.0809 0 .1745-.0137.2545-.0448l-.0673.4284c-.0848.036-.2008.0584-.3354.0584-.4914 0-.7059-.2814-.6299-.7497z"/><path d="m33.0592 43.1159c-.0487.3126-.0624.518-.0536.7098h-.5226c-.0088-.1246-.0049-.2726.0175-.4196-.1696.2629-.4153.4644-.7868.4644-.4875 0-.7956-.294-.6835-.9776l.2233-1.4011h.5411l-.232 1.4459c-.0488.3262.0624.5093.3393.5093.3354 0 .5986-.2191.661-.6066l.2097-1.3476h.5411l-.2545 1.6241z"/><path d="m34.2936 42.2143c.0488-.3262.0624-.5219.0712-.7235h.5187c0 .1247-.0088.2902-.0273.4372.1657-.2726.429-.4868.8093-.4868.469 0 .7868.2765.6747.9814l-.2233 1.4012h-.5411l.2232-1.4284c.0585-.3437-.0624-.5093-.3441-.5093-.3355 0-.6075.2191-.666.6066l-.2096 1.3301h-.5412l.2545-1.6114z"/><path d="m37.5697 41.4918h.5411l-.3705 2.3339h-.5411zm.0487-.6923c0-.1743.1433-.3126.3218-.3126.1784 0 .3169.1344.3169.3077s-.1434.3126-.3218.3126-.3169-.1344-.3169-.3077z"/><path d="m39.0264 43.1159.192-1.2181h-.3129l.0624-.406h.3129l.0849-.5131h.5411l-.0848.5131h.505l-.0624.406h-.505l-.1921 1.2142c-.0361.2366.0448.3126.2369.3126.081 0 .1746-.0137.2545-.0448l-.0673.4284c-.0848.036-.2008.0584-.3354.0584-.4914 0-.7059-.2814-.6298-.7497z"/><path d="m41.2835 41.4918h.5412l-.3705 2.3339h-.5412zm.0488-.6923c0-.1743.1433-.3126.3217-.3126.1785 0 .3169.1344.3169.3077s-.1433.3126-.3217.3126c-.1785 0-.3169-.1344-.3169-.3077z"/><path d="m43.6695 43.4684c.2905 0 .4777-.1246.5538-.3573h.5226c-.1346.5043-.5636.7585-1.095.7585-.6523 0-1.0861-.3837-1.0861-1.0224 0-.8306.545-1.4012 1.2646-1.4012.7195 0 1.1086.4285.9828 1.2318l-.0176.0983h-1.6897v.0983c0 .3613.1658.594.5636.594zm-.509-1.0526h1.1486c.0312-.3836-.1248-.5803-.4914-.5803-.2818 0-.55.1655-.6572.5803z"/><path d="m45.5025 43.0984h.5099c.0176.2142.1248.3749.4739.3749.2681 0 .3929-.1071.3929-.3038 0-.1695-.1023-.2405-.4426-.3165-.5226-.1207-.7332-.3125-.7332-.6825 0-.482.4202-.7274.9067-.7274.4866 0 .8629.2055.8941.705h-.5002c-.0136-.188-.1608-.3126-.4065-.3126-.2458 0-.3842.1023-.3842.2814 0 .1519.1121.223.4339.2989.5138.1159.7644.2727.7644.7098 0 .4733-.3803.7498-.9428.7498-.6299 0-.9604-.3213-.9653-.777z"/><path d="m49.8599 41.4918h.3169l.0624-.3924c.0809-.4869.4153-.7137.8492-.7137.1784 0 .2682.0224.3491.0584l-.0624.4109c-.0624-.0273-.1346-.0448-.2321-.0448-.2194 0-.3305.1246-.3666.3262l-.0585.3573h.5363l-.0673.4061h-.5314l-.3081 1.9279h-.5363l.3042-1.9279h-.3168l.0624-.4061z"/><path d="m51.7553 42.8219c-.0049-.7858.545-1.3749 1.2831-1.3749.6435 0 1.1037.3924 1.1037 1.0448 0 .8033-.5313 1.3787-1.287 1.3787-.6435 0-1.0998-.406-1.0998-1.0486zm1.8321-.335c0-.37-.1921-.6202-.5675-.6202-.4427 0-.7196.4109-.7196.9552 0 .3661.1745.629.5675.629.4602 0 .7196-.4148.7196-.964z"/><path d="m55.1201 42.2143c.0488-.3262.0624-.5219.0673-.7235h.5187c0 .1247-.0087.3038-.0273.4869.1921-.335.4203-.518.8581-.5219l-.08.5044c-.4778.0048-.7868.183-.8717.7234l-.1784 1.1421h-.5411z"/><path d="m58.5483 43.2143c0-.5891.5002-.7771 1.171-.7771h.4115l.0176-.1246c.0487-.3038-.0449-.4644-.3706-.4644-.2681 0-.4202.1295-.4738.3661h-.5187c.1121-.5628.5538-.7722 1.015-.7722.6123 0 .9789.2727.8755.928l-.116.7458c-.0487.3038-.0624.5131-.04.7098h-.5138c-.0175-.1158-.0175-.2414-.0088-.3388-.156.2366-.3929.3836-.6971.3836-.4602 0-.7508-.2541-.7508-.6562zm1.4928-.2279.0312-.2093h-.3393c-.4427 0-.6484.1022-.6484.3924 0 .1743.116.3125.3666.3125.2993 0 .5412-.1694.5899-.4956z"/><path d="m62.0701 40.412h.5412l-.5412 3.4147h-.5411z"/><path d="m63.7286 40.412h.5412l-.5412 3.4147h-.5411z"/></g></svg>