<svg fill="none" height="24" viewBox="0 0 20 24" width="20" xmlns="http://www.w3.org/2000/svg"><path d="m9.7719 0s-3.49856 4.28813-9.7719 4.12912v4.31861h19.5433v-4.31861c-6.2728.1585-9.7719-4.12912-9.7719-4.12912z" fill="#ffb600"/><path d="m.00048828 4.14995v15.72095c6.27283172-.1585 9.77190172 4.1291 9.77190172 4.1291v-15.72093s-3.49857-4.28813-9.77190172-4.12912z" fill="#00a0a9"/><path d="m19.5439 4.14995v15.72095c-6.2728-.1585-9.77193 4.1291-9.77193 4.1291v-15.72093s3.49853-4.28813 9.77193-4.12912z" fill="#006e96"/><g fill="#fff"><path d="m6.95333 14.2238c.08946.3958.13317.8067.1286 1.234-.00458.4364-.061.8265-.16723 1.1679-.10827.3429-.25923.6249-.45695.8479-.19621.222-.43002.3708-.70145.4491-.27041.0767-.56827.068-.89307-.0249-.48236-.1382-.87578-.3729-1.18279-.7057-.30701-.3322-.54895-.7361-.72279-1.2106-.17384-.4765-.29176-1.0063-.35428-1.5956s-.09048-1.2116-.08387-1.871c.00559-.5375.05236-1.0694.14283-1.5921.09048-.5248.23432-.98355.43357-1.37522.19773-.39422.45645-.68633.77617-.87886.31819-.19254.71008-.22099 1.17313-.0884.26177.07519.50931.20625.73957.39219.22873.18593.43255.41149.60893.67616.17587.26467.3187.56283.429.89513.10928.3317.16723.6833.17739 1.0541l-1.07046-.3068c-.02084-.3744-.11386-.6996-.27702-.9739-.16367-.2743-.38579-.45059-.66789-.53137-.19315-.05537-.36089-.05435-.50321.00254-.14232.05893-.26279.15596-.36038.28953-.09912.1352-.17892.2982-.24144.4908-.06099.193-.11132.4003-.15198.6198-.03914.2199-.06913.4404-.08641.6629s-.03456.4298-.0493.6228l.0188.0315c.14741-.3185.3492-.5278.60436-.6309.25517-.1016.52914-.1113.82344-.0269.32479.0929.61605.2535.8707.4805.25465.2271.47017.5014.64553.822.17536.3211.30752.6782.3985 1.0724zm-1.02014 1.581c.05032-.2129.07624-.4405.07878-.6803.00254-.2377-.01829-.477-.06404-.7117-.04422-.2362-.11335-.4516-.20891-.6462s-.21501-.3642-.35733-.5085c-.14283-.1443-.31107-.2433-.50524-.2987s-.36343-.0554-.51287.0015c-.1474.0554-.27244.1529-.3741.2911s-.17892.3114-.23229.5197c-.05184.2068-.07878.4359-.08132.6833-.00255.2474.01982.4902.06658.7274.04829.2373.12148.4578.22009.6605.0981.2047.22009.3789.36546.5237.1469.1453.31616.2449.50931.3003.19468.0558.36394.0518.5088-.0138.14486-.0655.26686-.1717.36597-.3139.09912-.1428.17231-.3206.22111-.5339"/><path d="m14.2554 17.9409-.2806.0076c-.0193-.0056-.0391-.0142-.0594-.0167-.2821-.0346-.5363-.1372-.7482-.3221-.4631-.4049-.6374-.9358-.6695-1.523-.001-.0239.031-.0635.0565-.0717.1357-.0437.2729-.0807.4096-.1194.2023-.0568.4041-.1127.5902-.1651.0569.19.0955.3795.1708.5523.1164.2662.3425.446.6663.4089.273-.031.5048-.1433.6984-.3317.2984-.2901.4605-.6523.5683-1.0409.1601-.5726.2226-1.1593.2475-1.7507.0041-.1092.0102-.2189.0153-.3281-.0783.126-.1322.2575-.2003.3815-.2933.5309-.7167.9124-1.3256 1.0683-.6466.1651-1.1915-.0223-1.5772-.5425-.2364-.3191-.3553-.6858-.426-1.0684-.0259-.1422-.0468-.2855-.0691-.4282l-.0153-.5304c.0046-.0198.0127-.0386.0143-.0584.0259-.7163.1926-1.3986.5494-2.0275.3264-.57455.7645-1.04192 1.3994-1.29846.3481-.14123.7131-.22353 1.0928-.17019.4956.0696.8305.36526 1.0664.77675.2684.46839.3883.9835.459 1.5103.0767.5741.1164 1.1507.1194 1.7303.0046.7483-.0534 1.4905-.2155 2.2226-.1774.8036-.461 1.5626-.9902 2.2179-.278.344-.6145.6117-1.0348.7682-.1657.0619-.3426.099-.5134.1473zm1.5401-6.5478c-.0106-.3744-.0462-.6446-.1453-.9037-.0956-.2505-.2272-.4775-.4799-.60506-.3324-.16764-.6455-.07518-.9322.10973-.3065.19813-.4945.49533-.6201.82453-.2302.602-.2689 1.2212-.1301 1.8496.0417.188.1108.3684.2302.5233.2903.3764.6496.4272 1.0924.224.2887-.1326.4874-.3617.643-.6274.2704-.4638.3446-.9708.3415-1.3955z"/></g></svg>