<svg fill="none" height="122" viewBox="0 0 213 122" width="213" xmlns="http://www.w3.org/2000/svg" xmlns:xlink="http://www.w3.org/1999/xlink"><filter id="a" color-interpolation-filters="sRGB" filterUnits="userSpaceOnUse" height="122" width="212" x=".453857" y="0"><feFlood flood-opacity="0" result="BackgroundImageFix"/><feColorMatrix in="SourceAlpha" result="hardAlpha" type="matrix" values="0 0 0 0 0 0 0 0 0 0 0 0 0 0 0 0 0 0 127 0"/><feOffset dy="2"/><feGaussianBlur stdDeviation="3"/><feComposite in2="hardAlpha" operator="out"/><feColorMatrix type="matrix" values="0 0 0 0 0 0 0 0 0 0 0 0 0 0 0 0 0 0 0.05 0"/><feBlend in2="BackgroundImageFix" mode="normal" result="effect1_dropShadow_71:8258"/><feBlend in="SourceGraphic" in2="effect1_dropShadow_71:8258" mode="normal" result="shape"/></filter><filter id="b" color-interpolation-filters="sRGB" filterUnits="userSpaceOnUse" height="13.6" width="121.487" x="55.4352" y="21.4291"><feFlood flood-opacity="0" result="BackgroundImageFix"/><feColorMatrix in="SourceAlpha" result="hardAlpha" type="matrix" values="0 0 0 0 0 0 0 0 0 0 0 0 0 0 0 0 0 0 127 0"/><feOffset dy="1"/><feGaussianBlur stdDeviation="1.5"/><feComposite in2="hardAlpha" operator="out"/><feColorMatrix type="matrix" values="0 0 0 0 0 0 0 0 0 0 0 0 0 0 0 0 0 0 0.1 0"/><feBlend in2="BackgroundImageFix" mode="normal" result="effect1_dropShadow_71:8258"/><feBlend in="SourceGraphic" in2="effect1_dropShadow_71:8258" mode="normal" result="shape"/></filter><linearGradient id="c" gradientUnits="userSpaceOnUse" x1="205.824" x2="5.82098" y1="4.00001" y2="112.837"><stop offset="0" stop-color="#94d7ea"/><stop offset=".507792" stop-color="#6bd5f3"/><stop offset="1" stop-color="#417cc5"/></linearGradient><g filter="url(#a)"><rect fill="url(#c)" height="110" rx="5" width="200" x="6.45386" y="4"/><circle cx="28.6264" cy="26.6274" fill="#fff" r="12.605"/><g filter="url(#b)"><path d="m64.9952 31.0291-2.272-3.968 2.096-3.632h-1.984l-1.088 2.144-1.056-2.144h-2.096l2.096 3.712-2.256 3.888h2.032l1.248-2.432 1.184 2.432zm12.1394 0-2.272-3.968 2.096-3.632h-1.984l-1.088 2.144-1.056-2.144h-2.096l2.096 3.712-2.256 3.888h2.032l1.248-2.432 1.184 2.432zm7.5463 0-2.272-3.968 2.096-3.632h-1.984l-1.088 2.144-1.056-2.144h-2.096l2.096 3.712-2.256 3.888h2.032l1.248-2.432 1.184 2.432zm7.5462 0-2.272-3.968 2.096-3.632h-1.984l-1.088 2.144-1.056-2.144h-2.096l2.096 3.712-2.256 3.888h2.032l1.248-2.432 1.184 2.432zm7.5463 0-2.272-3.968 2.096-3.632h-1.984l-1.088 2.144-1.056-2.144h-2.096l2.096 3.712-2.256 3.888h2.032l1.248-2.432 1.184 2.432zm12.1396 0-2.272-3.968 2.096-3.632h-1.984l-1.088 2.144-1.056-2.144h-2.096l2.096 3.712-2.256 3.888h2.032l1.248-2.432 1.184 2.432zm7.546 0-2.272-3.968 2.096-3.632h-1.984l-1.088 2.144-1.056-2.144h-2.096l2.096 3.712-2.256 3.888h2.032l1.248-2.432 1.184 2.432zm7.546 0-2.272-3.968 2.096-3.632h-1.984l-1.088 2.144-1.056-2.144h-2.096l2.096 3.712-2.256 3.888h2.032l1.248-2.432 1.184 2.432zm7.546 0-2.272-3.968 2.096-3.632h-1.984l-1.088 2.144-1.056-2.144h-2.096l2.096 3.712-2.256 3.888h2.032l1.248-2.432 1.184 2.432zm7.547 0-2.272-3.968 2.096-3.632h-1.984l-1.088 2.144-1.056-2.144h-2.096l2.096 3.712-2.256 3.888h2.032l1.248-2.432 1.184 2.432zm12.139 0-2.272-3.968 2.096-3.632h-1.984l-1.088 2.144-1.056-2.144h-2.096l2.096 3.712-2.256 3.888h2.032l1.248-2.432 1.184 2.432zm7.546 0-2.272-3.968 2.096-3.632h-1.984l-1.088 2.144-1.056-2.144h-2.096l2.096 3.712-2.256 3.888h2.032l1.248-2.432 1.184 2.432zm12.14 0-2.272-3.968 2.096-3.632h-1.984l-1.088 2.144-1.056-2.144h-2.096l2.096 3.712-2.256 3.888h2.032l1.248-2.432 1.184 2.432z" fill="#1a477f"/></g><rect fill="#fff" height="51.8908" rx="2" width="47.7941" x="148.471" y="50.4285"/></g></svg>